<mxfile host="65bd71144e">
    <diagram id="oZrcbOzBXE9Zqkzthed6" name="Page-1">
        <mxGraphModel dx="827" dy="1635" grid="1" gridSize="10" guides="1" tooltips="1" connect="1" arrows="1" fold="1" page="1" pageScale="1" pageWidth="827" pageHeight="1169" math="0" shadow="0">
            <root>
                <mxCell id="0"/>
                <mxCell id="1" parent="0"/>
                <mxCell id="41" value="" style="group" parent="1" vertex="1" connectable="0">
                    <mxGeometry x="119" y="20" width="322" height="235" as="geometry"/>
                </mxCell>
                <mxCell id="31" value="&#10;&#10;&lt;span style=&quot;color: rgb(0, 204, 0); font-family: helvetica; font-size: 12px; font-style: normal; font-weight: 400; letter-spacing: normal; text-align: center; text-indent: 0px; text-transform: none; word-spacing: 0px; background-color: rgb(42, 42, 42); display: inline; float: none;&quot;&gt;Service API&lt;/span&gt;&lt;br style=&quot;padding: 0px; margin: 0px; color: rgb(0, 204, 0); font-family: helvetica; font-size: 12px; font-style: normal; font-weight: 400; letter-spacing: normal; text-align: center; text-indent: 0px; text-transform: none; word-spacing: 0px; background-color: rgb(42, 42, 42);&quot;&gt;&lt;span style=&quot;color: rgb(0, 204, 0); font-family: helvetica; font-size: 12px; font-style: normal; font-weight: 400; letter-spacing: normal; text-align: center; text-indent: 0px; text-transform: none; word-spacing: 0px; background-color: rgb(42, 42, 42); display: inline; float: none;&quot;&gt;&amp;amp; Plane&lt;/span&gt;&#10;&#10;" style="text;html=1;strokeColor=none;fillColor=none;align=center;verticalAlign=middle;whiteSpace=wrap;rounded=0;fontColor=#00CC00;" parent="41" vertex="1">
                    <mxGeometry x="61" y="10" width="60" height="20" as="geometry"/>
                </mxCell>
                <mxCell id="32" value="&#10;&#10;&lt;br style=&quot;color: rgb(51, 153, 255); font-family: helvetica; font-size: 11px; font-style: normal; font-weight: 400; letter-spacing: normal; text-align: center; text-indent: 0px; text-transform: none; word-spacing: 0px;&quot;&gt;&lt;br style=&quot;color: rgb(51, 153, 255); font-family: helvetica; font-size: 11px; font-style: normal; font-weight: 400; letter-spacing: normal; text-align: center; text-indent: 0px; text-transform: none; word-spacing: 0px;&quot;&gt;&lt;br style=&quot;color: rgb(51, 153, 255); font-family: helvetica; font-size: 11px; font-style: normal; font-weight: 400; letter-spacing: normal; text-align: center; text-indent: 0px; text-transform: none; word-spacing: 0px;&quot;&gt;&lt;br style=&quot;color: rgb(51, 153, 255); font-family: helvetica; font-size: 11px; font-style: normal; font-weight: 400; letter-spacing: normal; text-align: center; text-indent: 0px; text-transform: none; word-spacing: 0px;&quot;&gt;&lt;span style=&quot;color: rgb(51, 153, 255); font-family: helvetica; font-size: 11px; font-style: normal; font-weight: 400; letter-spacing: normal; text-align: center; text-indent: 0px; text-transform: none; word-spacing: 0px; background-color: rgb(42, 42, 42); display: inline; float: none;&quot;&gt;Connector&lt;/span&gt;&lt;br style=&quot;color: rgb(51, 153, 255); font-family: helvetica; font-size: 11px; font-style: normal; font-weight: 400; letter-spacing: normal; text-align: center; text-indent: 0px; text-transform: none; word-spacing: 0px;&quot;&gt;&lt;span style=&quot;color: rgb(51, 153, 255); font-family: helvetica; font-size: 11px; font-style: normal; font-weight: 400; letter-spacing: normal; text-align: center; text-indent: 0px; text-transform: none; word-spacing: 0px; background-color: rgb(42, 42, 42); display: inline; float: none;&quot;&gt;API &amp;amp;&lt;/span&gt;&lt;br style=&quot;color: rgb(51, 153, 255); font-family: helvetica; font-size: 11px; font-style: normal; font-weight: 400; letter-spacing: normal; text-align: center; text-indent: 0px; text-transform: none; word-spacing: 0px;&quot;&gt;&lt;span style=&quot;color: rgb(51, 153, 255); font-family: helvetica; font-size: 11px; font-style: normal; font-weight: 400; letter-spacing: normal; text-align: center; text-indent: 0px; text-transform: none; word-spacing: 0px; background-color: rgb(42, 42, 42); display: inline; float: none;&quot;&gt;Plane&lt;/span&gt;&#10;&#10;" style="text;html=1;strokeColor=none;fillColor=none;align=center;verticalAlign=middle;whiteSpace=wrap;rounded=0;fontColor=#00CC00;" parent="41" vertex="1">
                    <mxGeometry x="282" y="190" width="40" height="20" as="geometry"/>
                </mxCell>
                <mxCell id="30" value="" style="ellipse;whiteSpace=wrap;html=1;fontColor=#00CC00;fillColor=#00CC00;strokeColor=#009900;" parent="41" vertex="1">
                    <mxGeometry x="50" width="19" height="18" as="geometry"/>
                </mxCell>
                <mxCell id="JxhfGXeFzCiD75mEehl8-1" value="«Catena-X»&lt;br&gt;&lt;b&gt;(Dataspace) Component&lt;br&gt;&lt;br&gt;&lt;br&gt;&lt;br&gt;&lt;br&gt;&lt;br&gt;&lt;br&gt;&lt;br&gt;&lt;br&gt;&lt;br&gt;&lt;/b&gt;" style="html=1;dropTarget=0;" parent="41" vertex="1">
                    <mxGeometry y="55" width="240" height="180" as="geometry"/>
                </mxCell>
                <mxCell id="JxhfGXeFzCiD75mEehl8-2" value="" style="shape=module;jettyWidth=8;jettyHeight=4;" parent="JxhfGXeFzCiD75mEehl8-1" vertex="1">
                    <mxGeometry x="1" width="20" height="20" relative="1" as="geometry">
                        <mxPoint x="-27" y="7" as="offset"/>
                    </mxGeometry>
                </mxCell>
                <mxCell id="JxhfGXeFzCiD75mEehl8-10" value="IDS/GAIA-X&#10;Connector" style="shape=module;align=left;spacingLeft=20;align=center;verticalAlign=top;fillColor=#1ba1e2;strokeColor=#006EAF;fontColor=#ffffff;" parent="41" vertex="1">
                    <mxGeometry x="10" y="175" width="220" height="50" as="geometry"/>
                </mxCell>
                <mxCell id="JxhfGXeFzCiD75mEehl8-15" value="" style="rounded=0;orthogonalLoop=1;jettySize=auto;html=1;endArrow=none;endFill=0;sketch=0;sourcePerimeterSpacing=0;exitX=1;exitY=0.5;exitDx=0;exitDy=0;fillColor=#1ba1e2;strokeColor=#006EAF;fontColor=#3399FF;" parent="41" target="32" edge="1">
                    <mxGeometry y="20" as="geometry">
                        <mxPoint x="232" y="200" as="sourcePoint"/>
                        <mxPoint x="302" y="200" as="targetPoint"/>
                        <Array as="points">
                            <mxPoint x="302" y="200"/>
                        </Array>
                        <mxPoint as="offset"/>
                    </mxGeometry>
                </mxCell>
                <mxCell id="JxhfGXeFzCiD75mEehl8-16" value="Internal &#10;Modules &amp; &#10;Network Plane" style="shape=module;align=left;spacingLeft=20;align=center;verticalAlign=top;fillColor=#f0a30a;strokeColor=#BD7000;fontColor=#000000;" parent="41" vertex="1">
                    <mxGeometry x="10" y="105" width="220" height="50" as="geometry"/>
                </mxCell>
                <mxCell id="16" value="&lt;font color=&quot;#ffffff&quot;&gt;1&lt;/font&gt;" style="text;html=1;strokeColor=none;fillColor=none;align=center;verticalAlign=middle;whiteSpace=wrap;rounded=0;fontColor=#3399FF;" parent="41" vertex="1">
                    <mxGeometry x="200" y="175" width="40" height="20" as="geometry"/>
                </mxCell>
                <mxCell id="17" value="&lt;font color=&quot;#000000&quot;&gt;0..*&lt;/font&gt;" style="text;html=1;strokeColor=none;fillColor=none;align=center;verticalAlign=middle;whiteSpace=wrap;rounded=0;fontColor=#3399FF;" parent="41" vertex="1">
                    <mxGeometry x="200" y="105" width="40" height="20" as="geometry"/>
                </mxCell>
                <mxCell id="29" value="" style="ellipse;whiteSpace=wrap;html=1;fontColor=#00CC00;fillColor=#3399FF;strokeColor=#007FFF;" parent="41" vertex="1">
                    <mxGeometry x="301" y="190" width="20" height="20" as="geometry"/>
                </mxCell>
                <mxCell id="JxhfGXeFzCiD75mEehl8-9" value="" style="rounded=0;orthogonalLoop=1;jettySize=auto;html=1;endArrow=none;endFill=0;sketch=0;sourcePerimeterSpacing=0;fillColor=#60a917;strokeColor=#2D7600;" parent="41" edge="1">
                    <mxGeometry x="174" y="59" as="geometry">
                        <mxPoint x="60" y="54" as="sourcePoint"/>
                        <mxPoint x="60" y="20" as="targetPoint"/>
                    </mxGeometry>
                </mxCell>
                <mxCell id="80" value="" style="group" parent="1" vertex="1" connectable="0">
                    <mxGeometry x="30" y="590" width="550" height="280" as="geometry"/>
                </mxCell>
                <mxCell id="42" value="" style="group" parent="80" vertex="1" connectable="0">
                    <mxGeometry x="90" width="322" height="235" as="geometry"/>
                </mxCell>
                <mxCell id="43" value="&#10;&#10;&lt;span style=&quot;color: rgb(0, 204, 0); font-family: helvetica; font-size: 12px; font-style: normal; font-weight: 400; letter-spacing: normal; text-align: center; text-indent: 0px; text-transform: none; word-spacing: 0px; background-color: rgb(42, 42, 42); display: inline; float: none;&quot;&gt;Service API&lt;/span&gt;&lt;br style=&quot;padding: 0px; margin: 0px; color: rgb(0, 204, 0); font-family: helvetica; font-size: 12px; font-style: normal; font-weight: 400; letter-spacing: normal; text-align: center; text-indent: 0px; text-transform: none; word-spacing: 0px; background-color: rgb(42, 42, 42);&quot;&gt;&lt;span style=&quot;color: rgb(0, 204, 0); font-family: helvetica; font-size: 12px; font-style: normal; font-weight: 400; letter-spacing: normal; text-align: center; text-indent: 0px; text-transform: none; word-spacing: 0px; background-color: rgb(42, 42, 42); display: inline; float: none;&quot;&gt;&amp;amp; Plane&lt;/span&gt;&#10;&#10;" style="text;html=1;strokeColor=none;fillColor=none;align=center;verticalAlign=middle;whiteSpace=wrap;rounded=0;fontColor=#00CC00;" parent="42" vertex="1">
                    <mxGeometry x="71" y="5" width="60" height="20" as="geometry"/>
                </mxCell>
                <mxCell id="44" value="&#10;&#10;&lt;br style=&quot;color: rgb(51, 153, 255); font-family: helvetica; font-size: 11px; font-style: normal; font-weight: 400; letter-spacing: normal; text-align: center; text-indent: 0px; text-transform: none; word-spacing: 0px;&quot;&gt;&lt;br style=&quot;color: rgb(51, 153, 255); font-family: helvetica; font-size: 11px; font-style: normal; font-weight: 400; letter-spacing: normal; text-align: center; text-indent: 0px; text-transform: none; word-spacing: 0px;&quot;&gt;&lt;br style=&quot;color: rgb(51, 153, 255); font-family: helvetica; font-size: 11px; font-style: normal; font-weight: 400; letter-spacing: normal; text-align: center; text-indent: 0px; text-transform: none; word-spacing: 0px;&quot;&gt;&lt;br style=&quot;color: rgb(51, 153, 255); font-family: helvetica; font-size: 11px; font-style: normal; font-weight: 400; letter-spacing: normal; text-align: center; text-indent: 0px; text-transform: none; word-spacing: 0px;&quot;&gt;&lt;span style=&quot;color: rgb(51, 153, 255); font-family: helvetica; font-size: 11px; font-style: normal; font-weight: 400; letter-spacing: normal; text-align: center; text-indent: 0px; text-transform: none; word-spacing: 0px; background-color: rgb(42, 42, 42); display: inline; float: none;&quot;&gt;Connector&lt;/span&gt;&lt;br style=&quot;color: rgb(51, 153, 255); font-family: helvetica; font-size: 11px; font-style: normal; font-weight: 400; letter-spacing: normal; text-align: center; text-indent: 0px; text-transform: none; word-spacing: 0px;&quot;&gt;&lt;span style=&quot;color: rgb(51, 153, 255); font-family: helvetica; font-size: 11px; font-style: normal; font-weight: 400; letter-spacing: normal; text-align: center; text-indent: 0px; text-transform: none; word-spacing: 0px; background-color: rgb(42, 42, 42); display: inline; float: none;&quot;&gt;API &amp;amp;&lt;/span&gt;&lt;br style=&quot;color: rgb(51, 153, 255); font-family: helvetica; font-size: 11px; font-style: normal; font-weight: 400; letter-spacing: normal; text-align: center; text-indent: 0px; text-transform: none; word-spacing: 0px;&quot;&gt;&lt;span style=&quot;color: rgb(51, 153, 255); font-family: helvetica; font-size: 11px; font-style: normal; font-weight: 400; letter-spacing: normal; text-align: center; text-indent: 0px; text-transform: none; word-spacing: 0px; background-color: rgb(42, 42, 42); display: inline; float: none;&quot;&gt;Plane&lt;/span&gt;&#10;&#10;" style="text;html=1;strokeColor=none;fillColor=none;align=center;verticalAlign=middle;whiteSpace=wrap;rounded=0;fontColor=#00CC00;" parent="42" vertex="1">
                    <mxGeometry x="292" y="81" width="40" height="20" as="geometry"/>
                </mxCell>
                <mxCell id="45" value="" style="ellipse;whiteSpace=wrap;html=1;fontColor=#00CC00;fillColor=#00CC00;strokeColor=#009900;" parent="42" vertex="1">
                    <mxGeometry x="60" y="-5" width="19" height="18" as="geometry"/>
                </mxCell>
                <mxCell id="46" value="«Catena-X»&lt;br&gt;&lt;b&gt;Federating Component&lt;br&gt;&lt;/b&gt;" style="html=1;dropTarget=0;" parent="42" vertex="1">
                    <mxGeometry x="10" y="50" width="240" height="75" as="geometry"/>
                </mxCell>
                <mxCell id="47" value="" style="shape=module;jettyWidth=8;jettyHeight=4;" parent="46" vertex="1">
                    <mxGeometry x="1" width="20" height="20" relative="1" as="geometry">
                        <mxPoint x="-27" y="7" as="offset"/>
                    </mxGeometry>
                </mxCell>
                <mxCell id="49" value="" style="rounded=0;orthogonalLoop=1;jettySize=auto;html=1;endArrow=none;endFill=0;sketch=0;sourcePerimeterSpacing=0;exitX=1;exitY=0.5;exitDx=0;exitDy=0;fillColor=#1ba1e2;strokeColor=#006EAF;fontColor=#3399FF;" parent="42" target="44" edge="1">
                    <mxGeometry x="10" y="-89" as="geometry">
                        <mxPoint x="242" y="91" as="sourcePoint"/>
                        <mxPoint x="312" y="91" as="targetPoint"/>
                        <Array as="points">
                            <mxPoint x="312" y="91"/>
                        </Array>
                        <mxPoint as="offset"/>
                    </mxGeometry>
                </mxCell>
                <mxCell id="52" value="&lt;font color=&quot;#000000&quot;&gt;0..*&lt;/font&gt;" style="text;html=1;strokeColor=none;fillColor=none;align=center;verticalAlign=middle;whiteSpace=wrap;rounded=0;fontColor=#3399FF;" parent="42" vertex="1">
                    <mxGeometry x="210" y="100" width="40" height="20" as="geometry"/>
                </mxCell>
                <mxCell id="53" value="" style="ellipse;whiteSpace=wrap;html=1;fontColor=#00CC00;fillColor=#3399FF;strokeColor=#007FFF;" parent="42" vertex="1">
                    <mxGeometry x="311" y="81" width="20" height="20" as="geometry"/>
                </mxCell>
                <mxCell id="54" value="" style="rounded=0;orthogonalLoop=1;jettySize=auto;html=1;endArrow=none;endFill=0;sketch=0;sourcePerimeterSpacing=0;fillColor=#60a917;strokeColor=#2D7600;" parent="42" edge="1">
                    <mxGeometry x="184" y="54" as="geometry">
                        <mxPoint x="70" y="49" as="sourcePoint"/>
                        <mxPoint x="70" y="15" as="targetPoint"/>
                    </mxGeometry>
                </mxCell>
                <mxCell id="59" value="&#10;&#10;&lt;span style=&quot;color: rgb(0, 204, 0); font-family: helvetica; font-size: 12px; font-style: normal; font-weight: 400; letter-spacing: normal; text-align: center; text-indent: 0px; text-transform: none; word-spacing: 0px; background-color: rgb(42, 42, 42); display: inline; float: none;&quot;&gt;Service API&lt;/span&gt;&lt;br style=&quot;padding: 0px; margin: 0px; color: rgb(0, 204, 0); font-family: helvetica; font-size: 12px; font-style: normal; font-weight: 400; letter-spacing: normal; text-align: center; text-indent: 0px; text-transform: none; word-spacing: 0px; background-color: rgb(42, 42, 42);&quot;&gt;&lt;span style=&quot;color: rgb(0, 204, 0); font-family: helvetica; font-size: 12px; font-style: normal; font-weight: 400; letter-spacing: normal; text-align: center; text-indent: 0px; text-transform: none; word-spacing: 0px; background-color: rgb(42, 42, 42); display: inline; float: none;&quot;&gt;&amp;amp; Plane&lt;/span&gt;&#10;&#10;" style="text;html=1;strokeColor=none;fillColor=none;align=center;verticalAlign=middle;whiteSpace=wrap;rounded=0;fontColor=#00CC00;" parent="80" vertex="1">
                    <mxGeometry x="36" y="160" width="60" height="20" as="geometry"/>
                </mxCell>
                <mxCell id="60" value="&#10;&#10;&lt;br style=&quot;color: rgb(51, 153, 255); font-family: helvetica; font-size: 11px; font-style: normal; font-weight: 400; letter-spacing: normal; text-align: center; text-indent: 0px; text-transform: none; word-spacing: 0px;&quot;&gt;&lt;br style=&quot;color: rgb(51, 153, 255); font-family: helvetica; font-size: 11px; font-style: normal; font-weight: 400; letter-spacing: normal; text-align: center; text-indent: 0px; text-transform: none; word-spacing: 0px;&quot;&gt;&lt;br style=&quot;color: rgb(51, 153, 255); font-family: helvetica; font-size: 11px; font-style: normal; font-weight: 400; letter-spacing: normal; text-align: center; text-indent: 0px; text-transform: none; word-spacing: 0px;&quot;&gt;&lt;br style=&quot;color: rgb(51, 153, 255); font-family: helvetica; font-size: 11px; font-style: normal; font-weight: 400; letter-spacing: normal; text-align: center; text-indent: 0px; text-transform: none; word-spacing: 0px;&quot;&gt;&lt;span style=&quot;color: rgb(51, 153, 255); font-family: helvetica; font-size: 11px; font-style: normal; font-weight: 400; letter-spacing: normal; text-align: center; text-indent: 0px; text-transform: none; word-spacing: 0px; background-color: rgb(42, 42, 42); display: inline; float: none;&quot;&gt;Connector&lt;/span&gt;&lt;br style=&quot;color: rgb(51, 153, 255); font-family: helvetica; font-size: 11px; font-style: normal; font-weight: 400; letter-spacing: normal; text-align: center; text-indent: 0px; text-transform: none; word-spacing: 0px;&quot;&gt;&lt;span style=&quot;color: rgb(51, 153, 255); font-family: helvetica; font-size: 11px; font-style: normal; font-weight: 400; letter-spacing: normal; text-align: center; text-indent: 0px; text-transform: none; word-spacing: 0px; background-color: rgb(42, 42, 42); display: inline; float: none;&quot;&gt;API &amp;amp;&lt;/span&gt;&lt;br style=&quot;color: rgb(51, 153, 255); font-family: helvetica; font-size: 11px; font-style: normal; font-weight: 400; letter-spacing: normal; text-align: center; text-indent: 0px; text-transform: none; word-spacing: 0px;&quot;&gt;&lt;span style=&quot;color: rgb(51, 153, 255); font-family: helvetica; font-size: 11px; font-style: normal; font-weight: 400; letter-spacing: normal; text-align: center; text-indent: 0px; text-transform: none; word-spacing: 0px; background-color: rgb(42, 42, 42); display: inline; float: none;&quot;&gt;Plane&lt;/span&gt;&#10;&#10;" style="text;html=1;strokeColor=none;fillColor=none;align=center;verticalAlign=middle;whiteSpace=wrap;rounded=0;fontColor=#00CC00;" parent="80" vertex="1">
                    <mxGeometry x="201" y="236" width="40" height="20" as="geometry"/>
                </mxCell>
                <mxCell id="61" value="" style="ellipse;whiteSpace=wrap;html=1;fontColor=#00CC00;fillColor=#00CC00;strokeColor=#009900;" parent="80" vertex="1">
                    <mxGeometry x="25" y="150" width="19" height="18" as="geometry"/>
                </mxCell>
                <mxCell id="62" value="«Catena-X»&lt;br&gt;&lt;b&gt;Federated Component&lt;br&gt;&lt;/b&gt;" style="html=1;dropTarget=0;" parent="80" vertex="1">
                    <mxGeometry y="205" width="150" height="75" as="geometry"/>
                </mxCell>
                <mxCell id="63" value="" style="shape=module;jettyWidth=8;jettyHeight=4;" parent="62" vertex="1">
                    <mxGeometry x="1" width="20" height="20" relative="1" as="geometry">
                        <mxPoint x="-27" y="7" as="offset"/>
                    </mxGeometry>
                </mxCell>
                <mxCell id="64" value="" style="rounded=0;orthogonalLoop=1;jettySize=auto;html=1;endArrow=none;endFill=0;sketch=0;sourcePerimeterSpacing=0;exitX=1;exitY=0.5;exitDx=0;exitDy=0;fillColor=#1ba1e2;strokeColor=#006EAF;fontColor=#3399FF;" parent="80" target="60" edge="1">
                    <mxGeometry x="-201" y="-524" as="geometry">
                        <mxPoint x="151" y="246" as="sourcePoint"/>
                        <mxPoint x="101" y="-344" as="targetPoint"/>
                        <Array as="points">
                            <mxPoint x="221" y="246"/>
                        </Array>
                        <mxPoint as="offset"/>
                    </mxGeometry>
                </mxCell>
                <mxCell id="65" value="&lt;font color=&quot;#000000&quot;&gt;0..*&lt;/font&gt;" style="text;html=1;strokeColor=none;fillColor=none;align=center;verticalAlign=middle;whiteSpace=wrap;rounded=0;fontColor=#3399FF;" parent="80" vertex="1">
                    <mxGeometry x="200" y="255" width="40" height="20" as="geometry"/>
                </mxCell>
                <mxCell id="66" value="" style="ellipse;whiteSpace=wrap;html=1;fontColor=#00CC00;fillColor=#3399FF;strokeColor=#007FFF;" parent="80" vertex="1">
                    <mxGeometry x="220" y="236" width="20" height="20" as="geometry"/>
                </mxCell>
                <mxCell id="67" value="" style="rounded=0;orthogonalLoop=1;jettySize=auto;html=1;endArrow=none;endFill=0;sketch=0;sourcePerimeterSpacing=0;fillColor=#60a917;strokeColor=#2D7600;" parent="80" edge="1">
                    <mxGeometry x="29" y="-381" as="geometry">
                        <mxPoint x="35" y="204" as="sourcePoint"/>
                        <mxPoint x="35" y="170" as="targetPoint"/>
                    </mxGeometry>
                </mxCell>
                <mxCell id="68" value="&#10;&#10;&lt;span style=&quot;color: rgb(0, 204, 0); font-family: helvetica; font-size: 12px; font-style: normal; font-weight: 400; letter-spacing: normal; text-align: center; text-indent: 0px; text-transform: none; word-spacing: 0px; background-color: rgb(42, 42, 42); display: inline; float: none;&quot;&gt;Service API&lt;/span&gt;&lt;br style=&quot;padding: 0px; margin: 0px; color: rgb(0, 204, 0); font-family: helvetica; font-size: 12px; font-style: normal; font-weight: 400; letter-spacing: normal; text-align: center; text-indent: 0px; text-transform: none; word-spacing: 0px; background-color: rgb(42, 42, 42);&quot;&gt;&lt;span style=&quot;color: rgb(0, 204, 0); font-family: helvetica; font-size: 12px; font-style: normal; font-weight: 400; letter-spacing: normal; text-align: center; text-indent: 0px; text-transform: none; word-spacing: 0px; background-color: rgb(42, 42, 42); display: inline; float: none;&quot;&gt;&amp;amp; Plane&lt;/span&gt;&#10;&#10;" style="text;html=1;strokeColor=none;fillColor=none;align=center;verticalAlign=middle;whiteSpace=wrap;rounded=0;fontColor=#00CC00;" parent="80" vertex="1">
                    <mxGeometry x="345" y="160" width="60" height="20" as="geometry"/>
                </mxCell>
                <mxCell id="69" value="&#10;&#10;&lt;br style=&quot;color: rgb(51, 153, 255); font-family: helvetica; font-size: 11px; font-style: normal; font-weight: 400; letter-spacing: normal; text-align: center; text-indent: 0px; text-transform: none; word-spacing: 0px;&quot;&gt;&lt;br style=&quot;color: rgb(51, 153, 255); font-family: helvetica; font-size: 11px; font-style: normal; font-weight: 400; letter-spacing: normal; text-align: center; text-indent: 0px; text-transform: none; word-spacing: 0px;&quot;&gt;&lt;br style=&quot;color: rgb(51, 153, 255); font-family: helvetica; font-size: 11px; font-style: normal; font-weight: 400; letter-spacing: normal; text-align: center; text-indent: 0px; text-transform: none; word-spacing: 0px;&quot;&gt;&lt;br style=&quot;color: rgb(51, 153, 255); font-family: helvetica; font-size: 11px; font-style: normal; font-weight: 400; letter-spacing: normal; text-align: center; text-indent: 0px; text-transform: none; word-spacing: 0px;&quot;&gt;&lt;span style=&quot;color: rgb(51, 153, 255); font-family: helvetica; font-size: 11px; font-style: normal; font-weight: 400; letter-spacing: normal; text-align: center; text-indent: 0px; text-transform: none; word-spacing: 0px; background-color: rgb(42, 42, 42); display: inline; float: none;&quot;&gt;Connector&lt;/span&gt;&lt;br style=&quot;color: rgb(51, 153, 255); font-family: helvetica; font-size: 11px; font-style: normal; font-weight: 400; letter-spacing: normal; text-align: center; text-indent: 0px; text-transform: none; word-spacing: 0px;&quot;&gt;&lt;span style=&quot;color: rgb(51, 153, 255); font-family: helvetica; font-size: 11px; font-style: normal; font-weight: 400; letter-spacing: normal; text-align: center; text-indent: 0px; text-transform: none; word-spacing: 0px; background-color: rgb(42, 42, 42); display: inline; float: none;&quot;&gt;API &amp;amp;&lt;/span&gt;&lt;br style=&quot;color: rgb(51, 153, 255); font-family: helvetica; font-size: 11px; font-style: normal; font-weight: 400; letter-spacing: normal; text-align: center; text-indent: 0px; text-transform: none; word-spacing: 0px;&quot;&gt;&lt;span style=&quot;color: rgb(51, 153, 255); font-family: helvetica; font-size: 11px; font-style: normal; font-weight: 400; letter-spacing: normal; text-align: center; text-indent: 0px; text-transform: none; word-spacing: 0px; background-color: rgb(42, 42, 42); display: inline; float: none;&quot;&gt;Plane&lt;/span&gt;&#10;&#10;" style="text;html=1;strokeColor=none;fillColor=none;align=center;verticalAlign=middle;whiteSpace=wrap;rounded=0;fontColor=#00CC00;" parent="80" vertex="1">
                    <mxGeometry x="510" y="236" width="40" height="20" as="geometry"/>
                </mxCell>
                <mxCell id="70" value="" style="ellipse;whiteSpace=wrap;html=1;fontColor=#00CC00;fillColor=#00CC00;strokeColor=#009900;" parent="80" vertex="1">
                    <mxGeometry x="334" y="150" width="19" height="18" as="geometry"/>
                </mxCell>
                <mxCell id="71" value="«Catena-X»&lt;br&gt;&lt;b&gt;Federated Component&lt;br&gt;&lt;/b&gt;" style="html=1;dropTarget=0;" parent="80" vertex="1">
                    <mxGeometry x="309" y="205" width="150" height="75" as="geometry"/>
                </mxCell>
                <mxCell id="72" value="" style="shape=module;jettyWidth=8;jettyHeight=4;" parent="71" vertex="1">
                    <mxGeometry x="1" width="20" height="20" relative="1" as="geometry">
                        <mxPoint x="-27" y="7" as="offset"/>
                    </mxGeometry>
                </mxCell>
                <mxCell id="73" value="" style="rounded=0;orthogonalLoop=1;jettySize=auto;html=1;endArrow=none;endFill=0;sketch=0;sourcePerimeterSpacing=0;exitX=1;exitY=0.5;exitDx=0;exitDy=0;fillColor=#1ba1e2;strokeColor=#006EAF;fontColor=#3399FF;" parent="80" target="69" edge="1">
                    <mxGeometry x="108" y="-524" as="geometry">
                        <mxPoint x="460" y="246" as="sourcePoint"/>
                        <mxPoint x="410" y="-344" as="targetPoint"/>
                        <Array as="points">
                            <mxPoint x="530" y="246"/>
                        </Array>
                        <mxPoint as="offset"/>
                    </mxGeometry>
                </mxCell>
                <mxCell id="74" value="&lt;font color=&quot;#000000&quot;&gt;0..*&lt;/font&gt;" style="text;html=1;strokeColor=none;fillColor=none;align=center;verticalAlign=middle;whiteSpace=wrap;rounded=0;fontColor=#3399FF;" parent="80" vertex="1">
                    <mxGeometry x="509" y="255" width="40" height="20" as="geometry"/>
                </mxCell>
                <mxCell id="75" value="" style="ellipse;whiteSpace=wrap;html=1;fontColor=#00CC00;fillColor=#3399FF;strokeColor=#007FFF;" parent="80" vertex="1">
                    <mxGeometry x="529" y="236" width="20" height="20" as="geometry"/>
                </mxCell>
                <mxCell id="76" value="" style="rounded=0;orthogonalLoop=1;jettySize=auto;html=1;endArrow=none;endFill=0;sketch=0;sourcePerimeterSpacing=0;fillColor=#60a917;strokeColor=#2D7600;" parent="80" edge="1">
                    <mxGeometry x="338" y="-381" as="geometry">
                        <mxPoint x="344" y="204" as="sourcePoint"/>
                        <mxPoint x="344" y="170" as="targetPoint"/>
                    </mxGeometry>
                </mxCell>
                <mxCell id="78" value="" style="endArrow=block;html=1;fontColor=#00CC00;exitX=0.75;exitY=0;exitDx=0;exitDy=0;entryX=0.5;entryY=1;entryDx=0;entryDy=0;startArrow=block;startFill=1;endFill=1;" parent="80" source="62" target="46" edge="1">
                    <mxGeometry width="50" height="50" relative="1" as="geometry">
                        <mxPoint x="270" y="240" as="sourcePoint"/>
                        <mxPoint x="320" y="190" as="targetPoint"/>
                    </mxGeometry>
                </mxCell>
                <mxCell id="79" value="" style="endArrow=block;html=1;fontColor=#00CC00;entryX=0.136;entryY=0.002;entryDx=0;entryDy=0;entryPerimeter=0;startArrow=block;startFill=1;endFill=1;exitX=0.56;exitY=0.991;exitDx=0;exitDy=0;exitPerimeter=0;" parent="80" source="46" target="71" edge="1">
                    <mxGeometry width="50" height="50" relative="1" as="geometry">
                        <mxPoint x="230" y="130" as="sourcePoint"/>
                        <mxPoint x="230" y="135" as="targetPoint"/>
                    </mxGeometry>
                </mxCell>
                <mxCell id="81" value="" style="group" parent="1" vertex="1" connectable="0">
                    <mxGeometry x="50" y="302" width="390" height="223" as="geometry"/>
                </mxCell>
                <mxCell id="28" value="" style="endArrow=none;html=1;fontColor=#00CC00;entryX=-0.004;entryY=0.106;entryDx=0;entryDy=0;entryPerimeter=0;fillColor=#60a917;strokeColor=#2D7600;" parent="81" target="4" edge="1">
                    <mxGeometry width="50" height="50" relative="1" as="geometry">
                        <mxPoint x="28.999075700126355" y="62.90386392884375" as="sourcePoint"/>
                        <mxPoint x="420" y="-22" as="targetPoint"/>
                    </mxGeometry>
                </mxCell>
                <mxCell id="35" value="" style="ellipse;whiteSpace=wrap;html=1;fontColor=#00CC00;fillColor=#3399FF;strokeColor=#007FFF;" parent="81" vertex="1">
                    <mxGeometry x="370" y="178" width="20" height="20" as="geometry"/>
                </mxCell>
                <mxCell id="4" value="«Catena-X»&lt;br&gt;&lt;b&gt;Data Component&lt;br&gt;&lt;br&gt;&lt;br&gt;&lt;br&gt;&lt;br&gt;&lt;br&gt;&lt;br&gt;&lt;br&gt;&lt;br&gt;&lt;br&gt;&lt;/b&gt;" style="html=1;dropTarget=0;" parent="81" vertex="1">
                    <mxGeometry x="69" y="43" width="240" height="180" as="geometry"/>
                </mxCell>
                <mxCell id="5" value="" style="shape=module;jettyWidth=8;jettyHeight=4;" parent="4" vertex="1">
                    <mxGeometry x="1" width="20" height="20" relative="1" as="geometry">
                        <mxPoint x="-27" y="7" as="offset"/>
                    </mxGeometry>
                </mxCell>
                <mxCell id="11" value="" style="rounded=0;orthogonalLoop=1;jettySize=auto;html=1;endArrow=none;endFill=0;sketch=0;sourcePerimeterSpacing=0;exitX=1;exitY=0.5;exitDx=0;exitDy=0;fillColor=#1ba1e2;strokeColor=#006EAF;fontColor=#3399FF;" parent="81" edge="1">
                    <mxGeometry x="69" y="8" as="geometry">
                        <mxPoint x="301" y="188" as="sourcePoint"/>
                        <mxPoint x="371" y="188" as="targetPoint"/>
                        <Array as="points">
                            <mxPoint x="371" y="188"/>
                        </Array>
                        <mxPoint as="offset"/>
                    </mxGeometry>
                </mxCell>
                <mxCell id="15" value="Data Asset" style="shape=module;align=left;spacingLeft=20;align=center;verticalAlign=top;fillColor=#f0a30a;strokeColor=#BD7000;fontColor=#000000;" parent="81" vertex="1">
                    <mxGeometry x="189" y="163" width="100" height="50" as="geometry"/>
                </mxCell>
                <mxCell id="18" value="Data Asset" style="shape=module;align=left;spacingLeft=20;align=center;verticalAlign=top;fillColor=#f0a30a;strokeColor=#BD7000;fontColor=#000000;" parent="81" vertex="1">
                    <mxGeometry x="79" y="163" width="100" height="50" as="geometry"/>
                </mxCell>
                <mxCell id="19" value="Federating&#10;Asset" style="shape=module;align=left;spacingLeft=20;align=center;verticalAlign=top;fillColor=#f0a30a;strokeColor=#BD7000;fontColor=#000000;" parent="81" vertex="1">
                    <mxGeometry x="139" y="98" width="100" height="50" as="geometry"/>
                </mxCell>
                <mxCell id="20" value="" style="endArrow=classic;html=1;fontColor=#3399FF;exitX=0.75;exitY=0;exitDx=0;exitDy=0;entryX=1;entryY=0.5;entryDx=0;entryDy=0;" parent="81" source="15" target="19" edge="1">
                    <mxGeometry x="69" y="8" width="50" height="50" as="geometry">
                        <mxPoint x="449" y="28" as="sourcePoint"/>
                        <mxPoint x="499" y="-22" as="targetPoint"/>
                        <Array as="points">
                            <mxPoint x="264" y="123"/>
                        </Array>
                    </mxGeometry>
                </mxCell>
                <mxCell id="22" value="" style="endArrow=classic;html=1;fontColor=#3399FF;exitX=0.5;exitY=0;exitDx=0;exitDy=0;entryX=0.1;entryY=0.48;entryDx=0;entryDy=0;entryPerimeter=0;" parent="81" source="18" target="19" edge="1">
                    <mxGeometry x="69" y="8" width="50" height="50" as="geometry">
                        <mxPoint x="274" y="173" as="sourcePoint"/>
                        <mxPoint x="249" y="133" as="targetPoint"/>
                        <Array as="points">
                            <mxPoint x="129" y="123"/>
                        </Array>
                    </mxGeometry>
                </mxCell>
                <mxCell id="36" value="&#10;&#10;&lt;br style=&quot;color: rgb(51, 153, 255); font-family: helvetica; font-size: 11px; font-style: normal; font-weight: 400; letter-spacing: normal; text-align: center; text-indent: 0px; text-transform: none; word-spacing: 0px;&quot;&gt;&lt;br style=&quot;color: rgb(51, 153, 255); font-family: helvetica; font-size: 11px; font-style: normal; font-weight: 400; letter-spacing: normal; text-align: center; text-indent: 0px; text-transform: none; word-spacing: 0px;&quot;&gt;&lt;br style=&quot;color: rgb(51, 153, 255); font-family: helvetica; font-size: 11px; font-style: normal; font-weight: 400; letter-spacing: normal; text-align: center; text-indent: 0px; text-transform: none; word-spacing: 0px;&quot;&gt;&lt;br style=&quot;color: rgb(51, 153, 255); font-family: helvetica; font-size: 11px; font-style: normal; font-weight: 400; letter-spacing: normal; text-align: center; text-indent: 0px; text-transform: none; word-spacing: 0px;&quot;&gt;&lt;span style=&quot;color: rgb(51, 153, 255); font-family: helvetica; font-size: 11px; font-style: normal; font-weight: 400; letter-spacing: normal; text-align: center; text-indent: 0px; text-transform: none; word-spacing: 0px; background-color: rgb(42, 42, 42); display: inline; float: none;&quot;&gt;Connector&lt;/span&gt;&lt;br style=&quot;color: rgb(51, 153, 255); font-family: helvetica; font-size: 11px; font-style: normal; font-weight: 400; letter-spacing: normal; text-align: center; text-indent: 0px; text-transform: none; word-spacing: 0px;&quot;&gt;&lt;span style=&quot;color: rgb(51, 153, 255); font-family: helvetica; font-size: 11px; font-style: normal; font-weight: 400; letter-spacing: normal; text-align: center; text-indent: 0px; text-transform: none; word-spacing: 0px; background-color: rgb(42, 42, 42); display: inline; float: none;&quot;&gt;API &amp;amp;&lt;/span&gt;&lt;br style=&quot;color: rgb(51, 153, 255); font-family: helvetica; font-size: 11px; font-style: normal; font-weight: 400; letter-spacing: normal; text-align: center; text-indent: 0px; text-transform: none; word-spacing: 0px;&quot;&gt;&lt;span style=&quot;color: rgb(51, 153, 255); font-family: helvetica; font-size: 11px; font-style: normal; font-weight: 400; letter-spacing: normal; text-align: center; text-indent: 0px; text-transform: none; word-spacing: 0px; background-color: rgb(42, 42, 42); display: inline; float: none;&quot;&gt;Plane&lt;/span&gt;&#10;&#10;" style="text;html=1;strokeColor=none;fillColor=none;align=center;verticalAlign=middle;whiteSpace=wrap;rounded=0;fontColor=#00CC00;" parent="81" vertex="1">
                    <mxGeometry x="350" y="188" width="40" height="20" as="geometry"/>
                </mxCell>
                <mxCell id="37" value="&#10;&#10;&lt;span style=&quot;color: rgb(0, 204, 0); font-family: helvetica; font-size: 12px; font-style: normal; font-weight: 400; letter-spacing: normal; text-align: center; text-indent: 0px; text-transform: none; word-spacing: 0px; background-color: rgb(42, 42, 42); display: inline; float: none;&quot;&gt;Synchronous&amp;nbsp;&lt;/span&gt;&lt;br style=&quot;padding: 0px; margin: 0px; color: rgb(0, 204, 0); font-family: helvetica; font-size: 12px; font-style: normal; font-weight: 400; letter-spacing: normal; text-align: center; text-indent: 0px; text-transform: none; word-spacing: 0px; background-color: rgb(42, 42, 42);&quot;&gt;&lt;span style=&quot;color: rgb(0, 204, 0); font-family: helvetica; font-size: 12px; font-style: normal; font-weight: 400; letter-spacing: normal; text-align: center; text-indent: 0px; text-transform: none; word-spacing: 0px; background-color: rgb(42, 42, 42); display: inline; float: none;&quot;&gt;Query API&lt;/span&gt;&#10;&#10;" style="text;html=1;strokeColor=none;fillColor=none;align=center;verticalAlign=middle;whiteSpace=wrap;rounded=0;fontColor=#00CC00;" parent="81" vertex="1">
                    <mxGeometry x="169" y="8" width="40" height="20" as="geometry"/>
                </mxCell>
                <mxCell id="10" value="" style="rounded=0;orthogonalLoop=1;jettySize=auto;html=1;endArrow=none;endFill=0;sketch=0;sourcePerimeterSpacing=0;fillColor=#60a917;strokeColor=#2D7600;" parent="81" edge="1">
                    <mxGeometry x="243" y="318" as="geometry">
                        <mxPoint x="129" y="43" as="sourcePoint"/>
                        <mxPoint x="129" y="18" as="targetPoint"/>
                    </mxGeometry>
                </mxCell>
                <mxCell id="38" value="" style="ellipse;whiteSpace=wrap;html=1;fontColor=#00CC00;fillColor=#00CC00;strokeColor=#009900;" parent="81" vertex="1">
                    <mxGeometry x="119" width="19" height="18" as="geometry"/>
                </mxCell>
                <mxCell id="39" value="&lt;span&gt;Asnynchronous&lt;/span&gt;&lt;br style=&quot;padding: 0px ; margin: 0px&quot;&gt;&lt;span&gt;Event&lt;/span&gt;&lt;br style=&quot;padding: 0px ; margin: 0px&quot;&gt;&lt;span&gt;API&lt;/span&gt;" style="text;html=1;strokeColor=none;fillColor=none;align=center;verticalAlign=middle;whiteSpace=wrap;rounded=0;fontColor=#00CC00;" parent="81" vertex="1">
                    <mxGeometry y="88" width="40" height="20" as="geometry"/>
                </mxCell>
                <mxCell id="40" value="" style="ellipse;whiteSpace=wrap;html=1;fontColor=#00CC00;fillColor=#00CC00;strokeColor=#009900;" parent="81" vertex="1">
                    <mxGeometry x="11.5" y="53" width="19" height="19" as="geometry"/>
                </mxCell>
                <mxCell id="82" value="" style="group" parent="1" vertex="1" connectable="0">
                    <mxGeometry x="126" y="954" width="550" height="280" as="geometry"/>
                </mxCell>
                <mxCell id="83" value="" style="group" parent="82" vertex="1" connectable="0">
                    <mxGeometry x="90" width="322" height="235" as="geometry"/>
                </mxCell>
                <mxCell id="85" value="&#10;&#10;&lt;br style=&quot;color: rgb(51, 153, 255); font-family: helvetica; font-size: 11px; font-style: normal; font-weight: 400; letter-spacing: normal; text-align: center; text-indent: 0px; text-transform: none; word-spacing: 0px;&quot;&gt;&lt;br style=&quot;color: rgb(51, 153, 255); font-family: helvetica; font-size: 11px; font-style: normal; font-weight: 400; letter-spacing: normal; text-align: center; text-indent: 0px; text-transform: none; word-spacing: 0px;&quot;&gt;&lt;br style=&quot;color: rgb(51, 153, 255); font-family: helvetica; font-size: 11px; font-style: normal; font-weight: 400; letter-spacing: normal; text-align: center; text-indent: 0px; text-transform: none; word-spacing: 0px;&quot;&gt;&lt;br style=&quot;color: rgb(51, 153, 255); font-family: helvetica; font-size: 11px; font-style: normal; font-weight: 400; letter-spacing: normal; text-align: center; text-indent: 0px; text-transform: none; word-spacing: 0px;&quot;&gt;&lt;span style=&quot;color: rgb(51, 153, 255); font-family: helvetica; font-size: 11px; font-style: normal; font-weight: 400; letter-spacing: normal; text-align: center; text-indent: 0px; text-transform: none; word-spacing: 0px; background-color: rgb(42, 42, 42); display: inline; float: none;&quot;&gt;Connector&lt;/span&gt;&lt;br style=&quot;color: rgb(51, 153, 255); font-family: helvetica; font-size: 11px; font-style: normal; font-weight: 400; letter-spacing: normal; text-align: center; text-indent: 0px; text-transform: none; word-spacing: 0px;&quot;&gt;&lt;span style=&quot;color: rgb(51, 153, 255); font-family: helvetica; font-size: 11px; font-style: normal; font-weight: 400; letter-spacing: normal; text-align: center; text-indent: 0px; text-transform: none; word-spacing: 0px; background-color: rgb(42, 42, 42); display: inline; float: none;&quot;&gt;API &amp;amp;&lt;/span&gt;&lt;br style=&quot;color: rgb(51, 153, 255); font-family: helvetica; font-size: 11px; font-style: normal; font-weight: 400; letter-spacing: normal; text-align: center; text-indent: 0px; text-transform: none; word-spacing: 0px;&quot;&gt;&lt;span style=&quot;color: rgb(51, 153, 255); font-family: helvetica; font-size: 11px; font-style: normal; font-weight: 400; letter-spacing: normal; text-align: center; text-indent: 0px; text-transform: none; word-spacing: 0px; background-color: rgb(42, 42, 42); display: inline; float: none;&quot;&gt;Plane&lt;/span&gt;&#10;&#10;" style="text;html=1;strokeColor=none;fillColor=none;align=center;verticalAlign=middle;whiteSpace=wrap;rounded=0;fontColor=#00CC00;" parent="83" vertex="1">
                    <mxGeometry x="292" y="81" width="40" height="20" as="geometry"/>
                </mxCell>
                <mxCell id="87" value="«Catena-X»&lt;br&gt;&lt;b&gt;Federating Data Component&lt;br&gt;&lt;br&gt;&lt;br&gt;&lt;/b&gt;" style="html=1;dropTarget=0;" parent="83" vertex="1">
                    <mxGeometry x="10" y="50" width="240" height="75" as="geometry"/>
                </mxCell>
                <mxCell id="88" value="" style="shape=module;jettyWidth=8;jettyHeight=4;" parent="87" vertex="1">
                    <mxGeometry x="1" width="20" height="20" relative="1" as="geometry">
                        <mxPoint x="-27" y="7" as="offset"/>
                    </mxGeometry>
                </mxCell>
                <mxCell id="89" value="" style="rounded=0;orthogonalLoop=1;jettySize=auto;html=1;endArrow=none;endFill=0;sketch=0;sourcePerimeterSpacing=0;exitX=1;exitY=0.5;exitDx=0;exitDy=0;fillColor=#1ba1e2;strokeColor=#006EAF;fontColor=#3399FF;" parent="83" target="85" edge="1">
                    <mxGeometry x="10" y="-89" as="geometry">
                        <mxPoint x="242" y="91" as="sourcePoint"/>
                        <mxPoint x="312" y="91" as="targetPoint"/>
                        <Array as="points">
                            <mxPoint x="312" y="91"/>
                        </Array>
                        <mxPoint as="offset"/>
                    </mxGeometry>
                </mxCell>
                <mxCell id="90" value="&lt;font color=&quot;#000000&quot;&gt;0..*&lt;/font&gt;" style="text;html=1;strokeColor=none;fillColor=none;align=center;verticalAlign=middle;whiteSpace=wrap;rounded=0;fontColor=#3399FF;" parent="83" vertex="1">
                    <mxGeometry x="210" y="100" width="40" height="20" as="geometry"/>
                </mxCell>
                <mxCell id="91" value="" style="ellipse;whiteSpace=wrap;html=1;fontColor=#00CC00;fillColor=#3399FF;strokeColor=#007FFF;" parent="83" vertex="1">
                    <mxGeometry x="311" y="81" width="20" height="20" as="geometry"/>
                </mxCell>
                <mxCell id="117" value="" style="ellipse;whiteSpace=wrap;html=1;fontColor=#00CC00;fillColor=#00CC00;strokeColor=#009900;" parent="83" vertex="1">
                    <mxGeometry x="40" y="8" width="19" height="18" as="geometry"/>
                </mxCell>
                <mxCell id="119" value="&lt;br&gt;&lt;br&gt;&lt;span style=&quot;color: rgb(0 , 204 , 0) ; font-family: &amp;#34;helvetica&amp;#34; ; font-size: 12px ; font-style: normal ; font-weight: 400 ; letter-spacing: normal ; text-align: center ; text-indent: 0px ; text-transform: none ; word-spacing: 0px ; background-color: rgb(42 , 42 , 42) ; display: inline ; float: none&quot;&gt;SPARQL API&lt;/span&gt;&lt;br&gt;" style="text;html=1;strokeColor=none;fillColor=none;align=center;verticalAlign=middle;whiteSpace=wrap;rounded=0;fontColor=#00CC00;" parent="83" vertex="1">
                    <mxGeometry x="72" y="-4" width="40" height="20" as="geometry"/>
                </mxCell>
                <mxCell id="143" value="Federating Graph (Fuseki)" style="shape=module;align=left;spacingLeft=20;align=center;verticalAlign=top;fillColor=#f0a30a;strokeColor=#BD7000;fontColor=#000000;" parent="83" vertex="1">
                    <mxGeometry x="20" y="90" width="210" height="30" as="geometry"/>
                </mxCell>
                <mxCell id="94" value="&#10;&#10;&lt;br style=&quot;color: rgb(51, 153, 255); font-family: helvetica; font-size: 11px; font-style: normal; font-weight: 400; letter-spacing: normal; text-align: center; text-indent: 0px; text-transform: none; word-spacing: 0px;&quot;&gt;&lt;br style=&quot;color: rgb(51, 153, 255); font-family: helvetica; font-size: 11px; font-style: normal; font-weight: 400; letter-spacing: normal; text-align: center; text-indent: 0px; text-transform: none; word-spacing: 0px;&quot;&gt;&lt;br style=&quot;color: rgb(51, 153, 255); font-family: helvetica; font-size: 11px; font-style: normal; font-weight: 400; letter-spacing: normal; text-align: center; text-indent: 0px; text-transform: none; word-spacing: 0px;&quot;&gt;&lt;br style=&quot;color: rgb(51, 153, 255); font-family: helvetica; font-size: 11px; font-style: normal; font-weight: 400; letter-spacing: normal; text-align: center; text-indent: 0px; text-transform: none; word-spacing: 0px;&quot;&gt;&lt;span style=&quot;color: rgb(51, 153, 255); font-family: helvetica; font-size: 11px; font-style: normal; font-weight: 400; letter-spacing: normal; text-align: center; text-indent: 0px; text-transform: none; word-spacing: 0px; background-color: rgb(42, 42, 42); display: inline; float: none;&quot;&gt;Connector&lt;/span&gt;&lt;br style=&quot;color: rgb(51, 153, 255); font-family: helvetica; font-size: 11px; font-style: normal; font-weight: 400; letter-spacing: normal; text-align: center; text-indent: 0px; text-transform: none; word-spacing: 0px;&quot;&gt;&lt;span style=&quot;color: rgb(51, 153, 255); font-family: helvetica; font-size: 11px; font-style: normal; font-weight: 400; letter-spacing: normal; text-align: center; text-indent: 0px; text-transform: none; word-spacing: 0px; background-color: rgb(42, 42, 42); display: inline; float: none;&quot;&gt;API &amp;amp;&lt;/span&gt;&lt;br style=&quot;color: rgb(51, 153, 255); font-family: helvetica; font-size: 11px; font-style: normal; font-weight: 400; letter-spacing: normal; text-align: center; text-indent: 0px; text-transform: none; word-spacing: 0px;&quot;&gt;&lt;span style=&quot;color: rgb(51, 153, 255); font-family: helvetica; font-size: 11px; font-style: normal; font-weight: 400; letter-spacing: normal; text-align: center; text-indent: 0px; text-transform: none; word-spacing: 0px; background-color: rgb(42, 42, 42); display: inline; float: none;&quot;&gt;Plane&lt;/span&gt;&#10;&#10;" style="text;html=1;strokeColor=none;fillColor=none;align=center;verticalAlign=middle;whiteSpace=wrap;rounded=0;fontColor=#00CC00;" parent="82" vertex="1">
                    <mxGeometry x="201" y="236" width="40" height="20" as="geometry"/>
                </mxCell>
                <mxCell id="96" value="«Catena-X»&lt;br&gt;&lt;b&gt;Federated Data Comp.&lt;br&gt;&lt;br&gt;&lt;br&gt;&lt;/b&gt;" style="html=1;dropTarget=0;" parent="82" vertex="1">
                    <mxGeometry y="205" width="150" height="75" as="geometry"/>
                </mxCell>
                <mxCell id="97" value="" style="shape=module;jettyWidth=8;jettyHeight=4;" parent="96" vertex="1">
                    <mxGeometry x="1" width="20" height="20" relative="1" as="geometry">
                        <mxPoint x="-27" y="7" as="offset"/>
                    </mxGeometry>
                </mxCell>
                <mxCell id="98" value="" style="rounded=0;orthogonalLoop=1;jettySize=auto;html=1;endArrow=none;endFill=0;sketch=0;sourcePerimeterSpacing=0;exitX=1;exitY=0.5;exitDx=0;exitDy=0;fillColor=#1ba1e2;strokeColor=#006EAF;fontColor=#3399FF;" parent="82" target="94" edge="1">
                    <mxGeometry x="-201" y="-524" as="geometry">
                        <mxPoint x="151" y="246" as="sourcePoint"/>
                        <mxPoint x="101" y="-344" as="targetPoint"/>
                        <Array as="points">
                            <mxPoint x="221" y="246"/>
                        </Array>
                        <mxPoint as="offset"/>
                    </mxGeometry>
                </mxCell>
                <mxCell id="99" value="&lt;font color=&quot;#000000&quot;&gt;0..*&lt;/font&gt;" style="text;html=1;strokeColor=none;fillColor=none;align=center;verticalAlign=middle;whiteSpace=wrap;rounded=0;fontColor=#3399FF;" parent="82" vertex="1">
                    <mxGeometry x="200" y="255" width="40" height="20" as="geometry"/>
                </mxCell>
                <mxCell id="100" value="" style="ellipse;whiteSpace=wrap;html=1;fontColor=#00CC00;fillColor=#3399FF;strokeColor=#007FFF;" parent="82" vertex="1">
                    <mxGeometry x="220" y="236" width="20" height="20" as="geometry"/>
                </mxCell>
                <mxCell id="103" value="&#10;&#10;&lt;br style=&quot;color: rgb(51, 153, 255); font-family: helvetica; font-size: 11px; font-style: normal; font-weight: 400; letter-spacing: normal; text-align: center; text-indent: 0px; text-transform: none; word-spacing: 0px;&quot;&gt;&lt;br style=&quot;color: rgb(51, 153, 255); font-family: helvetica; font-size: 11px; font-style: normal; font-weight: 400; letter-spacing: normal; text-align: center; text-indent: 0px; text-transform: none; word-spacing: 0px;&quot;&gt;&lt;br style=&quot;color: rgb(51, 153, 255); font-family: helvetica; font-size: 11px; font-style: normal; font-weight: 400; letter-spacing: normal; text-align: center; text-indent: 0px; text-transform: none; word-spacing: 0px;&quot;&gt;&lt;br style=&quot;color: rgb(51, 153, 255); font-family: helvetica; font-size: 11px; font-style: normal; font-weight: 400; letter-spacing: normal; text-align: center; text-indent: 0px; text-transform: none; word-spacing: 0px;&quot;&gt;&lt;span style=&quot;color: rgb(51, 153, 255); font-family: helvetica; font-size: 11px; font-style: normal; font-weight: 400; letter-spacing: normal; text-align: center; text-indent: 0px; text-transform: none; word-spacing: 0px; background-color: rgb(42, 42, 42); display: inline; float: none;&quot;&gt;Connector&lt;/span&gt;&lt;br style=&quot;color: rgb(51, 153, 255); font-family: helvetica; font-size: 11px; font-style: normal; font-weight: 400; letter-spacing: normal; text-align: center; text-indent: 0px; text-transform: none; word-spacing: 0px;&quot;&gt;&lt;span style=&quot;color: rgb(51, 153, 255); font-family: helvetica; font-size: 11px; font-style: normal; font-weight: 400; letter-spacing: normal; text-align: center; text-indent: 0px; text-transform: none; word-spacing: 0px; background-color: rgb(42, 42, 42); display: inline; float: none;&quot;&gt;API &amp;amp;&lt;/span&gt;&lt;br style=&quot;color: rgb(51, 153, 255); font-family: helvetica; font-size: 11px; font-style: normal; font-weight: 400; letter-spacing: normal; text-align: center; text-indent: 0px; text-transform: none; word-spacing: 0px;&quot;&gt;&lt;span style=&quot;color: rgb(51, 153, 255); font-family: helvetica; font-size: 11px; font-style: normal; font-weight: 400; letter-spacing: normal; text-align: center; text-indent: 0px; text-transform: none; word-spacing: 0px; background-color: rgb(42, 42, 42); display: inline; float: none;&quot;&gt;Plane&lt;/span&gt;&#10;&#10;" style="text;html=1;strokeColor=none;fillColor=none;align=center;verticalAlign=middle;whiteSpace=wrap;rounded=0;fontColor=#00CC00;" parent="82" vertex="1">
                    <mxGeometry x="510" y="236" width="40" height="20" as="geometry"/>
                </mxCell>
                <mxCell id="105" value="«Catena-X»&lt;br&gt;&lt;b&gt;Federated Data Comp.&lt;br&gt;&lt;br&gt;&lt;br&gt;&lt;/b&gt;" style="html=1;dropTarget=0;" parent="82" vertex="1">
                    <mxGeometry x="309" y="205" width="150" height="75" as="geometry"/>
                </mxCell>
                <mxCell id="106" value="" style="shape=module;jettyWidth=8;jettyHeight=4;" parent="105" vertex="1">
                    <mxGeometry x="1" width="20" height="20" relative="1" as="geometry">
                        <mxPoint x="-27" y="7" as="offset"/>
                    </mxGeometry>
                </mxCell>
                <mxCell id="107" value="" style="rounded=0;orthogonalLoop=1;jettySize=auto;html=1;endArrow=none;endFill=0;sketch=0;sourcePerimeterSpacing=0;exitX=1;exitY=0.5;exitDx=0;exitDy=0;fillColor=#1ba1e2;strokeColor=#006EAF;fontColor=#3399FF;" parent="82" target="103" edge="1">
                    <mxGeometry x="108" y="-524" as="geometry">
                        <mxPoint x="460" y="246" as="sourcePoint"/>
                        <mxPoint x="410" y="-344" as="targetPoint"/>
                        <Array as="points">
                            <mxPoint x="530" y="246"/>
                        </Array>
                        <mxPoint as="offset"/>
                    </mxGeometry>
                </mxCell>
                <mxCell id="108" value="&lt;font color=&quot;#000000&quot;&gt;0..*&lt;/font&gt;" style="text;html=1;strokeColor=none;fillColor=none;align=center;verticalAlign=middle;whiteSpace=wrap;rounded=0;fontColor=#3399FF;" parent="82" vertex="1">
                    <mxGeometry x="509" y="255" width="40" height="20" as="geometry"/>
                </mxCell>
                <mxCell id="109" value="" style="ellipse;whiteSpace=wrap;html=1;fontColor=#00CC00;fillColor=#3399FF;strokeColor=#007FFF;" parent="82" vertex="1">
                    <mxGeometry x="529" y="236" width="20" height="20" as="geometry"/>
                </mxCell>
                <mxCell id="138" value="" style="ellipse;whiteSpace=wrap;html=1;fontColor=#00CC00;fillColor=#00CC00;strokeColor=#009900;" parent="82" vertex="1">
                    <mxGeometry x="41.5" y="64" width="19" height="19" as="geometry"/>
                </mxCell>
                <mxCell id="139" value="TTL&lt;br&gt;API" style="text;html=1;strokeColor=none;fillColor=none;align=center;verticalAlign=middle;whiteSpace=wrap;rounded=0;fontColor=#00CC00;" parent="82" vertex="1">
                    <mxGeometry x="31" y="30" width="40" height="20" as="geometry"/>
                </mxCell>
                <mxCell id="141" value="Federated Graph" style="shape=module;align=left;spacingLeft=20;align=center;verticalAlign=top;fillColor=#f0a30a;strokeColor=#BD7000;fontColor=#000000;" parent="82" vertex="1">
                    <mxGeometry x="14" y="245" width="126" height="30" as="geometry"/>
                </mxCell>
                <mxCell id="142" value="Federated Graph" style="shape=module;align=left;spacingLeft=20;align=center;verticalAlign=top;fillColor=#f0a30a;strokeColor=#BD7000;fontColor=#000000;" parent="82" vertex="1">
                    <mxGeometry x="310" y="245" width="140" height="30" as="geometry"/>
                </mxCell>
                <mxCell id="157" value="" style="endArrow=block;html=1;fontColor=#00CC00;exitX=0.5;exitY=0;exitDx=0;exitDy=0;startArrow=block;startFill=1;endFill=1;" parent="82" source="100" edge="1">
                    <mxGeometry width="50" height="50" relative="1" as="geometry">
                        <mxPoint x="276.5" y="201" as="sourcePoint"/>
                        <mxPoint x="418" y="98" as="targetPoint"/>
                        <Array as="points">
                            <mxPoint x="230" y="156"/>
                            <mxPoint x="418" y="156"/>
                        </Array>
                    </mxGeometry>
                </mxCell>
                <mxCell id="158" value="&quot;Streaming&quot; Data Request" style="edgeLabel;html=1;align=center;verticalAlign=middle;resizable=0;points=[];" parent="157" vertex="1" connectable="0">
                    <mxGeometry x="-0.3313" y="4" relative="1" as="geometry">
                        <mxPoint x="35" y="-12" as="offset"/>
                    </mxGeometry>
                </mxCell>
                <mxCell id="118" value="" style="rounded=0;orthogonalLoop=1;jettySize=auto;html=1;endArrow=none;endFill=0;sketch=0;sourcePerimeterSpacing=0;fillColor=#60a917;strokeColor=#2D7600;" parent="1" edge="1">
                    <mxGeometry x="330" y="977" as="geometry">
                        <mxPoint x="266" y="1004" as="sourcePoint"/>
                        <mxPoint x="266" y="979" as="targetPoint"/>
                    </mxGeometry>
                </mxCell>
                <mxCell id="120" value="" style="endArrow=none;html=1;fontColor=#00CC00;entryX=-0.004;entryY=0.106;entryDx=0;entryDy=0;entryPerimeter=0;fillColor=#60a917;strokeColor=#2D7600;" parent="1" edge="1">
                    <mxGeometry width="50" height="50" relative="1" as="geometry">
                        <mxPoint x="184.99907570012635" y="1028.9038639288437" as="sourcePoint"/>
                        <mxPoint x="224.03999999999996" y="1028.08" as="targetPoint"/>
                    </mxGeometry>
                </mxCell>
                <mxCell id="144" value="&quot;Streaming&quot;&lt;br&gt;Push" style="edgeStyle=none;html=1;exitX=0.353;exitY=0.013;exitDx=0;exitDy=0;exitPerimeter=0;" parent="1" edge="1">
                    <mxGeometry relative="1" as="geometry">
                        <mxPoint x="177" y="1040" as="targetPoint"/>
                        <mxPoint x="175.95000000000005" y="1159.975" as="sourcePoint"/>
                    </mxGeometry>
                </mxCell>
                <mxCell id="146" value="" style="ellipse;whiteSpace=wrap;html=1;fontColor=#00CC00;fillColor=#00CC00;strokeColor=#009900;" parent="1" vertex="1">
                    <mxGeometry x="70.5" y="1169" width="19" height="19" as="geometry"/>
                </mxCell>
                <mxCell id="147" value="TTL&lt;br&gt;API" style="text;html=1;strokeColor=none;fillColor=none;align=center;verticalAlign=middle;whiteSpace=wrap;rounded=0;fontColor=#00CC00;" parent="1" vertex="1">
                    <mxGeometry x="60" y="1135" width="40" height="20" as="geometry"/>
                </mxCell>
                <mxCell id="148" value="" style="endArrow=none;html=1;fontColor=#00CC00;entryX=-0.004;entryY=0.106;entryDx=0;entryDy=0;entryPerimeter=0;fillColor=#60a917;strokeColor=#2D7600;" parent="1" edge="1">
                    <mxGeometry width="50" height="50" relative="1" as="geometry">
                        <mxPoint x="87.99907570012647" y="1179.9038639288437" as="sourcePoint"/>
                        <mxPoint x="127.03999999999996" y="1179.08" as="targetPoint"/>
                    </mxGeometry>
                </mxCell>
                <mxCell id="152" value="" style="ellipse;whiteSpace=wrap;html=1;fontColor=#00CC00;fillColor=#00CC00;strokeColor=#009900;" parent="1" vertex="1">
                    <mxGeometry x="444" y="1120" width="19" height="18" as="geometry"/>
                </mxCell>
                <mxCell id="153" value="" style="rounded=0;orthogonalLoop=1;jettySize=auto;html=1;endArrow=none;endFill=0;sketch=0;sourcePerimeterSpacing=0;fillColor=#60a917;strokeColor=#2D7600;" parent="1" edge="1">
                    <mxGeometry x="518" y="1135" as="geometry">
                        <mxPoint x="454" y="1162" as="sourcePoint"/>
                        <mxPoint x="454" y="1137" as="targetPoint"/>
                    </mxGeometry>
                </mxCell>
                <mxCell id="154" value="&lt;br&gt;&lt;br&gt;&lt;span style=&quot;color: rgb(0 , 204 , 0) ; font-family: &amp;#34;helvetica&amp;#34; ; font-size: 12px ; font-style: normal ; font-weight: 400 ; letter-spacing: normal ; text-align: center ; text-indent: 0px ; text-transform: none ; word-spacing: 0px ; background-color: rgb(42 , 42 , 42) ; display: inline ; float: none&quot;&gt;SPARQL API&lt;/span&gt;&lt;br&gt;" style="text;html=1;strokeColor=none;fillColor=none;align=center;verticalAlign=middle;whiteSpace=wrap;rounded=0;fontColor=#00CC00;" parent="1" vertex="1">
                    <mxGeometry x="470" y="1110" width="40" height="20" as="geometry"/>
                </mxCell>
                <mxCell id="112" value="&lt;font color=&quot;#ffffff&quot;&gt;&quot;Federated&quot; Pull&lt;/font&gt;" style="endArrow=block;html=1;fontColor=#00CC00;startArrow=none;startFill=0;endFill=1;entryX=1;entryY=0.5;entryDx=0;entryDy=0;exitX=0.167;exitY=0.027;exitDx=0;exitDy=0;exitPerimeter=0;" parent="1" source="87" target="152" edge="1">
                    <mxGeometry x="0.0983" y="-10" width="50" height="50" relative="1" as="geometry">
                        <mxPoint x="356" y="1084" as="sourcePoint"/>
                        <mxPoint x="455" y="1120" as="targetPoint"/>
                        <Array as="points">
                            <mxPoint x="266" y="1060"/>
                            <mxPoint x="420" y="1060"/>
                            <mxPoint x="420" y="970"/>
                            <mxPoint x="630" y="970"/>
                            <mxPoint x="630" y="1129"/>
                        </Array>
                        <mxPoint as="offset"/>
                    </mxGeometry>
                </mxCell>
            </root>
        </mxGraphModel>
    </diagram>
</mxfile>